<?xml version="1.0" encoding="utf-8"?>
<!-- Generator: Adobe Illustrator 24.0.3, SVG Export Plug-In . SVG Version: 6.00 Build 0)  -->
<svg version="1.1" id="Layer_1" xmlns="http://www.w3.org/2000/svg" xmlns:xlink="http://www.w3.org/1999/xlink" x="0px" y="0px"
	 viewBox="0 0 547.60193 283.46457" style="enable-background:new 0 0 547.60193 283.46457;" xml:space="preserve">
<style type="text/css">
	.st0{fill:#5E5F5E;}
	.st1{fill:#989898;}
</style>
<path class="st0" d="M545.04395,283.46457H2.55799C1.14525,283.46457,0,282.31931,0,280.90659V2.55799
	C0,1.14525,1.14525,0,2.55799,0h542.48596c1.41272,0,2.55798,1.14525,2.55798,2.55799v278.3486
	C547.60193,282.31931,546.45667,283.46457,545.04395,283.46457z"/>
<g id="CIRCLE_23_">
	<path d="M425.48511,69.25559c0-5.75601,4.66617-10.42218,10.42218-10.42218c5.75601,0,10.42218,4.66616,10.42218,10.42217
		c0,5.75601-4.66617,10.42217-10.42218,10.42217C430.15128,79.67776,425.48511,75.0116,425.48511,69.25559L425.48511,69.25559z"/>
</g>
<g id="CIRCLE_22_">
	<path d="M468.97119,69.25559c0-5.756,4.66617-10.42216,10.42218-10.42216c5.75598,0,10.42215,4.66616,10.42215,10.42216
		c0,5.756-4.66617,10.42216-10.42215,10.42216C473.63736,79.67775,468.97119,75.01159,468.97119,69.25559L468.97119,69.25559z"/>
</g>
<g id="CIRCLE_21_">
	<path d="M512.45721,69.25559c0-5.756,4.66614-10.42216,10.42212-10.42216c5.75604,0,10.42218,4.66616,10.42218,10.42216
		c0,5.756-4.66614,10.42216-10.42218,10.42216C517.12335,79.67775,512.45721,75.01159,512.45721,69.25559L512.45721,69.25559z"/>
</g>
<g id="CIRCLE_20_">
	<path d="M425.48514,112.74158c0-5.756,4.66617-10.42217,10.42218-10.42217s10.42218,4.66617,10.42218,10.42217
		s-4.66617,10.42217-10.42218,10.42217S425.48514,118.49759,425.48514,112.74158L425.48514,112.74158z"/>
</g>
<g id="CIRCLE_19_">
	<path d="M468.97119,112.74162c0-5.756,4.66617-10.42216,10.42218-10.42216c5.75598,0,10.42215,4.66616,10.42215,10.42216
		s-4.66617,10.42216-10.42215,10.42216C473.63736,123.16378,468.97119,118.49762,468.97119,112.74162L468.97119,112.74162z"/>
</g>
<g id="CIRCLE_18_">
	<path d="M512.45721,112.74162c0-5.756,4.66614-10.42216,10.42212-10.42216c5.75604,0,10.42218,4.66616,10.42218,10.42216
		c0,5.756-4.66614,10.42216-10.42218,10.42216C517.12335,123.16378,512.45721,118.49762,512.45721,112.74162L512.45721,112.74162z"
		/>
</g>
<g id="CIRCLE_17_">
	<path d="M381.99908,69.25559c0-5.75601,4.66617-10.42218,10.42218-10.42218c5.75601,0,10.42218,4.66616,10.42218,10.42217
		c0,5.75601-4.66617,10.42217-10.42218,10.42217C386.66525,79.67776,381.99908,75.0116,381.99908,69.25559L381.99908,69.25559z"/>
</g>
<g id="CIRCLE_16_">
	<path d="M14.05888,52.34431c0-5.756,4.66616-10.42217,10.42216-10.42217c5.756,0,10.42217,4.66616,10.42217,10.42216
		c0,5.756-4.66616,10.42216-10.42217,10.42217C18.72505,62.76648,14.05888,58.10031,14.05888,52.34431L14.05888,52.34431z"/>
</g>
<path d="M318.28033,53.86609v-7.65038H199.90167v7.65038h-0.00101v81.73863h118.38068V53.86609H318.28033z"/>
<path d="M81.57505,87.0929H70.42008c-1.87864,0-3.40158-1.52293-3.40158-3.40157V72.53636
	c0-1.87864,1.52294-3.40158,3.40158-3.40158h11.15497c1.87864,0,3.40157,1.52294,3.40157,3.40158v11.15497
	C84.97662,85.56997,83.45369,87.0929,81.57505,87.0929z"/>
<path d="M81.57505,128.96835H70.42008c-1.87864,0-3.40158-1.52294-3.40158-3.40158V114.4118
	c0-1.87864,1.52294-3.40158,3.40158-3.40158h11.15497c1.87864,0,3.40157,1.52294,3.40157,3.40158v11.15497
	C84.97662,127.44541,83.45369,128.96835,81.57505,128.96835z"/>
<path d="M55.82803,128.96834H44.67307c-1.87864,0-3.40158-1.52293-3.40158-3.40157V114.4118
	c0-1.87864,1.52294-3.40157,3.40158-3.40157h11.15497c1.87864,0,3.40157,1.52293,3.40157,3.40157v11.15497
	C59.22961,127.4454,57.70667,128.96834,55.82803,128.96834z"/>
<path d="M30.05853,128.96834H18.90356c-1.87864,0-3.40157-1.52293-3.40157-3.40157V114.4118
	c0-1.87864,1.52294-3.40157,3.40157-3.40157h11.15497c1.87864,0,3.40157,1.52293,3.40157,3.40157v11.15497
	C33.46011,127.4454,31.93717,128.96834,30.05853,128.96834z"/>
<path class="st1" d="M40.32027,170.8438H18.90356c-1.87864,0-3.40157-1.52295-3.40157-3.40158v-11.15497
	c0-1.87865,1.52294-3.40158,3.40157-3.40158h21.41671c1.87864,0,3.40157,1.52293,3.40157,3.40158v11.15497
	C43.72185,169.32085,42.19891,170.8438,40.32027,170.8438z"/>
<path d="M86.72842,170.8438H65.31171c-1.87864,0-3.40158-1.52295-3.40158-3.40158v-11.15497
	c0-1.87865,1.52294-3.40158,3.40158-3.40158h21.41671c1.87864,0,3.40157,1.52293,3.40157,3.40158v11.15497
	C90.12999,169.32085,88.60706,170.8438,86.72842,170.8438z"/>
<path d="M254.54166,209.49803h-21.41672c-1.87863,0-3.40157-1.52293-3.40157-3.40158v-11.15497
	c0-1.87865,1.52293-3.40158,3.40157-3.40158h21.41672c1.87863,0,3.40158,1.52293,3.40158,3.40158v11.15497
	C257.94324,207.9751,256.42029,209.49803,254.54166,209.49803z"/>
<path d="M285.15356,209.49803h-21.41672c-1.87863,0-3.40155-1.52293-3.40155-3.40158v-11.15497
	c0-1.87863,1.52292-3.40157,3.40155-3.40157h21.41672c1.87863,0,3.40158,1.52293,3.40158,3.40157v11.15497
	C288.55515,207.9751,287.0322,209.49803,285.15356,209.49803z"/>
<path d="M315.75565,209.49803h-21.41672c-1.87863,0-3.40158-1.52293-3.40158-3.40158v-11.15497
	c0-1.87863,1.52295-3.40157,3.40158-3.40157h21.41672c1.87863,0,3.40158,1.52293,3.40158,3.40157v11.15497
	C319.15723,207.9751,317.63428,209.49803,315.75565,209.49803z"/>
<path d="M529.96545,251.37347h-21.41672c-1.87863,0-3.40158-1.52293-3.40158-3.40157v-11.15498
	c0-1.87865,1.52295-3.40158,3.40158-3.40158h21.41672c1.87866,0,3.40161,1.52293,3.40161,3.40158v11.15498
	C533.36707,249.85054,531.84412,251.37347,529.96545,251.37347z"/>
<path d="M499.36337,256.47974h-21.41672c-1.87863,0-3.40158-1.52293-3.40158-3.40158v-21.37485
	c0-1.87865,1.52295-3.40158,3.40158-3.40158h21.41672c1.87863,0,3.40158,1.52293,3.40158,3.40158v21.37485
	C502.76495,254.9568,501.242,256.47974,499.36337,256.47974z"/>
<path d="M468.75064,256.47974h-21.41669c-1.87866,0-3.40158-1.52295-3.40158-3.40158v-21.37485
	c0-1.87863,1.52292-3.40157,3.40158-3.40157h21.41669c1.87863,0,3.40158,1.52293,3.40158,3.40157v21.37485
	C472.15222,254.95679,470.62927,256.47974,468.75064,256.47974z"/>
<path d="M438.16083,256.47974h-21.41672c-1.87863,0-3.40158-1.52295-3.40158-3.40158v-21.37485
	c0-1.87863,1.52295-3.40158,3.40158-3.40158h21.41672c1.87863,0,3.40158,1.52295,3.40158,3.40158v21.37485
	C441.56241,254.95679,440.03946,256.47974,438.16083,256.47974z"/>
<path d="M407.54807,256.47974h-21.41669c-1.87866,0-3.40158-1.52295-3.40158-3.40158v-21.37485
	c0-1.87863,1.52292-3.40157,3.40158-3.40157h21.41669c1.87863,0,3.40158,1.52293,3.40158,3.40157v21.37485
	C410.94965,254.95679,409.4267,256.47974,407.54807,256.47974z"/>
<path d="M376.95822,256.47974H355.5415c-1.87863,0-3.40155-1.52295-3.40155-3.40158v-21.37485
	c0-1.87863,1.52292-3.40158,3.40155-3.40158h21.41672c1.87863,0,3.40158,1.52295,3.40158,3.40158v21.37485
	C380.3598,254.95679,378.83685,256.47974,376.95822,256.47974z"/>
<path d="M374.94342,201.7249H353.5267c-1.87863,0-3.40158-1.52293-3.40158-3.40157v-21.37485
	c0-1.87863,1.52295-3.40158,3.40158-3.40158h21.41672c1.87863,0,3.40158,1.52295,3.40158,3.40158v21.37485
	C378.345,200.20197,376.82205,201.7249,374.94342,201.7249z"/>
<path d="M529.96545,201.72491h-21.41672c-1.87863,0-3.40158-1.52295-3.40158-3.40158v-21.37485
	c0-1.87865,1.52295-3.40158,3.40158-3.40158h21.41672c1.87866,0,3.40155,1.52293,3.40155,3.40158v21.37485
	C533.367,200.20197,531.84412,201.72491,529.96545,201.72491z"/>
<path d="M346.34549,256.47974H324.9288c-1.87866,0-3.40158-1.52295-3.40158-3.40158v-21.37485
	c0-1.87865,1.52292-3.40158,3.40158-3.40158h21.41669c1.87866,0,3.40158,1.52293,3.40158,3.40158v21.37485
	C349.74707,254.95679,348.22415,256.47974,346.34549,256.47974z"/>
<path d="M315.75565,256.47974h-21.41669c-1.87866,0-3.40158-1.52295-3.40158-3.40158v-21.37485
	c0-1.87865,1.52292-3.40158,3.40158-3.40158h21.41669c1.87866,0,3.40158,1.52293,3.40158,3.40158v21.37485
	C319.15723,254.95679,317.63431,256.47974,315.75565,256.47974z"/>
<path d="M285.14291,256.47974h-21.41669c-1.87866,0-3.40158-1.52295-3.40158-3.40158v-21.37485
	c0-1.87865,1.52292-3.40158,3.40158-3.40158h21.41669c1.87866,0,3.40158,1.52293,3.40158,3.40158v21.37485
	C288.54449,254.95679,287.02158,256.47974,285.14291,256.47974z"/>
<path d="M254.55309,256.47974h-21.4167c-1.87863,0-3.40157-1.52295-3.40157-3.40158v-21.37485
	c0-1.87863,1.52293-3.40158,3.40157-3.40158h21.4167c1.87865,0,3.4016,1.52295,3.4016,3.40158v21.37485
	C257.95468,254.95679,256.43173,256.47974,254.55309,256.47974z"/>
<path d="M223.9518,256.47974h-21.4167c-1.87863,0-3.40157-1.52295-3.40157-3.40158v-21.37485
	c0-1.87863,1.52293-3.40158,3.40157-3.40158h21.4167c1.87865,0,3.40158,1.52295,3.40158,3.40158v21.37485
	C227.35338,254.95679,225.83044,256.47974,223.9518,256.47974z"/>
<path d="M193.3391,256.47974h-21.41672c-1.87863,0-3.40157-1.52295-3.40157-3.40158v-21.37485
	c0-1.87865,1.52293-3.40158,3.40157-3.40158h21.41672c1.87863,0,3.40157,1.52293,3.40157,3.40158v21.37485
	C196.74066,254.95679,195.21773,256.47974,193.3391,256.47974z"/>
<path d="M162.74924,256.47974h-21.4167c-1.87863,0-3.40158-1.52295-3.40158-3.40158v-21.37485
	c0-1.87863,1.52295-3.40158,3.40158-3.40158h21.4167c1.87863,0,3.40158,1.52295,3.40158,3.40158v21.37485
	C166.15082,254.95679,164.62787,256.47974,162.74924,256.47974z"/>
<path d="M132.14795,256.47974h-21.4167c-1.87864,0-3.40157-1.52295-3.40157-3.40158v-21.37485
	c0-1.87863,1.52293-3.40158,3.40157-3.40158h21.4167c1.87865,0,3.40158,1.52295,3.40158,3.40158v21.37485
	C135.54953,254.95679,134.0266,256.47974,132.14795,256.47974z"/>
<path d="M101.54667,256.47974H80.12996c-1.87863,0-3.40157-1.52295-3.40157-3.40158v-21.37485
	c0-1.87863,1.52294-3.40158,3.40157-3.40158h21.41671c1.87863,0,3.40157,1.52295,3.40157,3.40158v21.37485
	C104.94824,254.95679,103.4253,256.47974,101.54667,256.47974z"/>
<path d="M70.94538,256.47974h-21.4167c-1.87864,0-3.40158-1.52295-3.40158-3.40158v-21.37485
	c0-1.87863,1.52294-3.40158,3.40158-3.40158h21.4167c1.87864,0,3.40158,1.52295,3.40158,3.40158v21.37485
	C74.34696,254.95679,72.82402,256.47974,70.94538,256.47974z"/>
<path d="M40.3441,256.47974H18.92739c-1.87864,0-3.40157-1.52295-3.40157-3.40158v-21.37485
	c0-1.87865,1.52294-3.40158,3.40157-3.40158H40.3441c1.87864,0,3.40158,1.52293,3.40158,3.40158v21.37485
	C43.74567,254.95679,42.22274,256.47974,40.3441,256.47974z"/>
<path d="M40.32028,209.49803H18.90356c-1.87864,0-3.40158-1.52293-3.40158-3.40158v-11.15497
	c0-1.87865,1.52294-3.40158,3.40158-3.40158h21.41672c1.87864,0,3.40157,1.52293,3.40157,3.40158v11.15497
	C43.72185,207.9751,42.19891,209.49803,40.32028,209.49803z"/>
<path d="M86.72842,209.49803H65.3117c-1.87864,0-3.40157-1.52293-3.40157-3.40158v-11.15497
	c0-1.87865,1.52294-3.40158,3.40157-3.40158h21.41672c1.87864,0,3.40158,1.52293,3.40158,3.40158v11.15497
	C90.13,207.9751,88.60706,209.49803,86.72842,209.49803z"/>
<path d="M30.05853,96.75648H18.90356c-1.87864,0-3.40158-1.52294-3.40158-3.40158V82.19992
	c0-1.87864,1.52294-3.40157,3.40158-3.40157h11.15498c1.87864,0,3.40158,1.52293,3.40158,3.40157V93.3549
	C33.46011,95.23354,31.93717,96.75648,30.05853,96.75648z"/>
<path d="M107.34456,87.09291H96.18958c-1.87864,0-3.40157-1.52293-3.40157-3.40157V72.53636
	c0-1.87864,1.52293-3.40157,3.40157-3.40157h11.15498c1.87864,0,3.40157,1.52293,3.40157,3.40157v11.15498
	C110.74613,85.56998,109.2232,87.09291,107.34456,87.09291z"/>
<path d="M107.34456,128.96835H96.18958c-1.87864,0-3.40157-1.52293-3.40157-3.40157V114.4118
	c0-1.87864,1.52293-3.40157,3.40157-3.40157h11.15498c1.87864,0,3.40157,1.52293,3.40157,3.40157v11.15498
	C110.74613,127.44542,109.2232,128.96835,107.34456,128.96835z"/>
<path d="M133.15904,87.0929h-11.15498c-1.87864,0-3.40158-1.52293-3.40158-3.40157V72.53636
	c0-1.87864,1.52294-3.40158,3.40158-3.40158h11.15498c1.87863,0,3.40157,1.52294,3.40157,3.40158v11.15497
	C136.56061,85.56997,135.03767,87.0929,133.15904,87.0929z"/>
<path d="M133.15904,128.96835h-11.15498c-1.87864,0-3.40158-1.52294-3.40158-3.40158V114.4118
	c0-1.87864,1.52294-3.40158,3.40158-3.40158h11.15498c1.87863,0,3.40157,1.52294,3.40157,3.40158v11.15497
	C136.56061,127.44541,135.03767,128.96835,133.15904,128.96835z"/>
<path d="M121.90424,183.72855h-11.15497c-1.87864,0-3.40158-1.52293-3.40158-3.40158V169.172
	c0-1.87863,1.52294-3.40158,3.40158-3.40158h11.15497c1.87864,0,3.40158,1.52295,3.40158,3.40158v11.15497
	C125.30582,182.20561,123.78288,183.72855,121.90424,183.72855z"/>
<path d="M121.90425,209.49805h-11.15498c-1.87864,0-3.40157-1.52293-3.40157-3.40158V194.9415
	c0-1.87865,1.52293-3.40158,3.40157-3.40158h11.15498c1.87864,0,3.40157,1.52293,3.40157,3.40158v11.15497
	C125.30582,207.97511,123.78289,209.49805,121.90425,209.49805z"/>
<path d="M147.67375,209.49805h-11.15498c-1.87863,0-3.40157-1.52293-3.40157-3.40158V194.9415
	c0-1.87865,1.52293-3.40158,3.40157-3.40158h11.15498c1.87863,0,3.40158,1.52293,3.40158,3.40158v11.15497
	C151.07533,207.97511,149.55238,209.49805,147.67375,209.49805z"/>
<path d="M173.44325,209.49803h-11.15497c-1.87865,0-3.40158-1.52293-3.40158-3.40157v-11.15498
	c0-1.87863,1.52293-3.40157,3.40158-3.40157h11.15497c1.87865,0,3.40158,1.52293,3.40158,3.40157v11.15498
	C176.84483,207.9751,175.3219,209.49803,173.44325,209.49803z"/>
<path d="M173.44325,183.72855h-11.15497c-1.87865,0-3.40158-1.52293-3.40158-3.40158V169.172
	c0-1.87863,1.52293-3.40158,3.40158-3.40158h11.15497c1.87865,0,3.40158,1.52295,3.40158,3.40158v11.15497
	C176.84483,182.20561,175.3219,183.72855,173.44325,183.72855z"/>
<path d="M199.21275,209.49805h-11.15498c-1.87863,0-3.40157-1.52293-3.40157-3.40158V194.9415
	c0-1.87865,1.52293-3.40158,3.40157-3.40158h11.15498c1.87863,0,3.40158,1.52293,3.40158,3.40158v11.15497
	C202.61433,207.97511,201.09138,209.49805,199.21275,209.49805z"/>
<path d="M183.10681,61.32338h-11.15497c-1.87863,0-3.40157-1.52293-3.40157-3.40157V46.76684
	c0-1.87864,1.52293-3.40158,3.40157-3.40158h11.15497c1.87865,0,3.40158,1.52294,3.40158,3.40158v11.15497
	C186.50839,59.80045,184.98546,61.32338,183.10681,61.32338z"/>
<path d="M183.10683,87.0929h-11.15498c-1.87863,0-3.40157-1.52293-3.40157-3.40157V72.53636
	c0-1.87864,1.52293-3.40158,3.40157-3.40158h11.15498c1.87863,0,3.40157,1.52294,3.40157,3.40158v11.15497
	C186.50839,85.56997,184.98546,87.0929,183.10683,87.0929z"/>
<path d="M183.10683,112.86242h-11.15498c-1.87863,0-3.40157-1.52294-3.40157-3.40158V98.30586
	c0-1.87864,1.52293-3.40157,3.40157-3.40157h11.15498c1.87863,0,3.40158,1.52293,3.40158,3.40157v11.15498
	C186.50841,111.33948,184.98546,112.86242,183.10683,112.86242z"/>
<path d="M183.10683,138.63191h-11.15498c-1.87863,0-3.40157-1.52293-3.40157-3.40157v-11.15498
	c0-1.87864,1.52293-3.40157,3.40157-3.40157h11.15498c1.87863,0,3.40158,1.52293,3.40158,3.40157v11.15498
	C186.50841,137.10898,184.98546,138.63191,183.10683,138.63191z"/>
<path d="M213.18466,163.2901h-11.15497c-1.87865,0-3.40158-1.52293-3.40158-3.40158v-11.15497
	c0-1.87863,1.52293-3.40158,3.40158-3.40158h11.15497c1.87865,0,3.40158,1.52295,3.40158,3.40158v11.15497
	C216.58624,161.76717,215.06331,163.2901,213.18466,163.2901z"/>
<path d="M238.95418,163.2901h-11.15498c-1.87863,0-3.40157-1.52295-3.40157-3.40158v-11.15497
	c0-1.87865,1.52293-3.40158,3.40157-3.40158h11.15498c1.87863,0,3.40157,1.52293,3.40157,3.40158v11.15497
	C242.35574,161.76715,240.83281,163.2901,238.95418,163.2901z"/>
<path d="M264.72366,163.2901h-11.15498c-1.87863,0-3.40157-1.52295-3.40157-3.40158v-11.15497
	c0-1.87865,1.52293-3.40158,3.40157-3.40158h11.15498c1.87863,0,3.40158,1.52293,3.40158,3.40158v11.15497
	C268.12524,161.76715,266.60229,163.2901,264.72366,163.2901z"/>
<path d="M290.49316,163.29008H279.3382c-1.87863,0-3.40158-1.52293-3.40158-3.40158v-11.15497
	c0-1.87863,1.52295-3.40157,3.40158-3.40157h11.15497c1.87863,0,3.40158,1.52293,3.40158,3.40157v11.15497
	C293.89474,161.76715,292.3718,163.29008,290.49316,163.29008z"/>
<path d="M316.26266,163.2901H305.1077c-1.87863,0-3.40158-1.52293-3.40158-3.40158v-11.15497
	c0-1.87863,1.52295-3.40157,3.40158-3.40157h11.15497c1.87863,0,3.40158,1.52293,3.40158,3.40157v11.15497
	C319.66425,161.76717,318.1413,163.2901,316.26266,163.2901z"/>
<path d="M346.34613,61.32339h-11.155c-1.87863,0-3.40158-1.52293-3.40158-3.40157V46.76684
	c0-1.87864,1.52295-3.40158,3.40158-3.40158h11.155c1.87863,0,3.40155,1.52294,3.40155,3.40158v11.15498
	C349.74768,59.80046,348.22476,61.32339,346.34613,61.32339z"/>
<path d="M397.99872,121.72066h-11.15497c-1.87866,0-3.40158-1.52294-3.40158-3.40158v-11.15497
	c0-1.87864,1.52292-3.40157,3.40158-3.40157h11.15497c1.87863,0,3.40158,1.52293,3.40158,3.40157v11.15497
	C401.4003,120.19772,399.87735,121.72066,397.99872,121.72066z"/>
<path d="M346.34613,87.09291h-11.15497c-1.87863,0-3.40158-1.52293-3.40158-3.40157V72.53636
	c0-1.87864,1.52295-3.40157,3.40158-3.40157h11.15497c1.87863,0,3.40158,1.52293,3.40158,3.40157v11.15498
	C349.74771,85.56998,348.22476,87.09291,346.34613,87.09291z"/>
<path d="M346.34613,112.8624h-11.15497c-1.87866,0-3.40158-1.52294-3.40158-3.40158V98.30585
	c0-1.87864,1.52292-3.40157,3.40158-3.40157h11.15497c1.87863,0,3.40158,1.52293,3.40158,3.40157v11.15497
	C349.74771,111.33946,348.22476,112.8624,346.34613,112.8624z"/>
<path d="M346.34613,138.6319h-11.15497c-1.87866,0-3.40158-1.52293-3.40158-3.40157v-11.15498
	c0-1.87864,1.52292-3.40157,3.40158-3.40157h11.15497c1.87863,0,3.40158,1.52293,3.40158,3.40157v11.15498
	C349.74771,137.10896,348.22476,138.6319,346.34613,138.6319z"/>
<path d="M486.03592,187.47313c0-1.4232-1.15372-2.57693-2.57697-2.57693h-54.73099v5.15398h54.73099
	C484.8822,190.05017,486.03592,188.89633,486.03592,187.47313z"/>
<path d="M400.03128,184.89619c-1.42322,0-2.57693,1.15373-2.57693,2.57693s1.15372,2.57704,2.57693,2.57704h16.30099v-5.15398
	H400.03128z"/>
<path d="M428.72797,180.39018c0-0.71207-0.12607-1.3932-0.34714-2.03014c-0.31009-0.89328-0.81299-1.69666-1.4675-2.35129
	c-0.9165-0.91684-2.12103-1.54018-3.4639-1.74039c-0.3006-0.04477-0.60574-0.07549-0.91876-0.07549
	c-0.35687,0-0.70447,0.0368-1.04477,0.09471c-1.35641,0.23068-2.5603,0.89938-3.4639,1.85876
	c-0.68808,0.73047-1.19855,1.62657-1.46844,2.62393c-0.13995,0.51715-0.22128,1.05844-0.22128,1.61989v4.50601v5.15398v4.82742
	c0,0.56157,0.08133,1.10286,0.22128,1.62c0.2699,0.9975,0.78036,1.89371,1.46844,2.62428
	c0.90359,0.9594,2.10748,1.62822,3.4639,1.85889c0.3403,0.05791,0.6879,0.09471,1.04477,0.09471
	c0.31302,0,0.61816-0.03072,0.91876-0.07549c1.34286-0.2002,2.54739-0.82378,3.4639-1.74049
	c0.65451-0.65488,1.15741-1.45825,1.4675-2.35165c0.22107-0.63693,0.34714-1.31818,0.34714-2.03024v-4.82742v-5.15398V180.39018z"/>
</svg>
